<svg width="33" height="96" viewBox="0 0 33 96" fill="none" xmlns="http://www.w3.org/2000/svg">
<path d="M32.2471 50.6257C32.2471 47.8317 31.1054 35.4265 16.1499 35.4265C8.61504 35.4265 0.623535 40.3439 0.623535 50.6257C0.623535 59.0075 5.8751 63.8132 11.9258 65.266C13.1816 65.6013 14.3233 65.7131 15.5791 65.8248C13.7524 73.9832 10.0992 83.2591 2.79267 94.3232C2.33601 94.9938 2.90684 95.9996 3.70599 95.9996H16.1499C16.4924 95.9996 16.8349 95.7761 17.0632 95.5526C28.9363 79.4593 32.2471 59.9016 32.2471 50.6257Z" fill="#2196F3"/>
<path d="M16.4918 27.7161C24.3102 27.7161 30.6482 21.5116 30.6482 13.8581C30.6482 6.20447 24.3102 0 16.4918 0C8.67347 0 2.33545 6.20447 2.33545 13.8581C2.33545 21.5116 8.67347 27.7161 16.4918 27.7161Z" fill="#2196F3"/>
</svg>
